HIERARCHY
ROOT hip
{
	OFFSET 0.000000 0.000000 0.000000 
	CHANNELS 6 Xposition Yposition Zposition Xrotation Zrotation Yrotation
	JOINT abdomen
	{
		OFFSET 0.000000 3.402643 0.000000 
		CHANNELS 3 Xrotation Zrotation Yrotation
		JOINT chest
		{
			OFFSET 0.000000 8.438565 -0.680529 
			CHANNELS 3 Xrotation Zrotation Yrotation
			JOINT neck
			{
				OFFSET 0.000000 10.207942 -0.272212 
				CHANNELS 3 Xrotation Zrotation Yrotation
				JOINT head
				{
					OFFSET 0.000000 3.130431 0.000000 
					CHANNELS 3 Xrotation Zrotation Yrotation
					End Site
					{
						OFFSET 0.000000 3.130435 0.000000 
					}
				}
			}
			JOINT lCollar
			{
				OFFSET 3.470700 6.669187 -0.816635 
				CHANNELS 3 Yrotation Zrotation Xrotation
				JOINT lShldr
				{
					OFFSET 3.198488 0.000000 0.000000 
					CHANNELS 3 Zrotation Yrotation Xrotation
					JOINT lForeArm
					{
						OFFSET 10.139888 0.000000 0.000000 
						CHANNELS 3 Yrotation Zrotation Xrotation
						JOINT lHand
						{
							OFFSET 8.370511 0.000000 0.000000 
							CHANNELS 3 Zrotation Yrotation Xrotation
							End Site
							{
								OFFSET 4.083176 0.000000 0.000000 
							}
						}
					}
				}
			}
			JOINT rCollar
			{
				OFFSET -3.470700 6.669187 -0.816635 
				CHANNELS 3 Yrotation Zrotation Xrotation
				JOINT rShldr
				{
					OFFSET -3.198488 0.000000 0.000000 
					CHANNELS 3 Zrotation Yrotation Xrotation
					JOINT rForeArm
					{
						OFFSET -10.139888 0.000000 0.000000 
						CHANNELS 3 Yrotation Zrotation Xrotation
						JOINT rHand
						{
							OFFSET -8.370511 0.000000 0.000000 
							CHANNELS 3 Zrotation Yrotation Xrotation
							End Site
							{
								OFFSET -4.083176 0.000000 0.000000 
							}
						}
					}
				}
			}
		}
	}
	JOINT lThigh
	{
		OFFSET 5.308129 -1.633274 1.361059 
		CHANNELS 3 Xrotation Zrotation Yrotation
		JOINT lShin
		{
			OFFSET -2.041588 -20.007561 0.000000 
			CHANNELS 3 Xrotation Zrotation Yrotation
			JOINT lFoot
			{
				OFFSET 0.000000 -19.190928 -1.224953 
				CHANNELS 3 Xrotation Yrotation Zrotation
				End Site
				{
					OFFSET 0.000000 -2.449906 4.627600 
				}
			}
		}
	}
	JOINT rThigh
	{
		OFFSET -5.308129 -1.633274 1.361059 
		CHANNELS 3 Xrotation Zrotation Yrotation
		JOINT rShin
		{
			OFFSET 2.041588 -20.007561 0.000000 
			CHANNELS 3 Xrotation Zrotation Yrotation
			JOINT rFoot
			{
				OFFSET 0.000000 -19.190928 -1.224953 
				CHANNELS 3 Xrotation Yrotation Zrotation
				End Site
				{
					OFFSET 0.000000 -2.449906 4.627600 
				}
			}
		}
	}
}
MOTION
Frames: 6
Frame Time: 0.011111
29.509834 51.228012 -45.439823 -1.354142 0.081421 -3.987405 5.277922 -1.537311 0.878243 -7.470168 7.114987 0.162616 -19.214720 -6.692177 0.384056 31.568235 8.383173 0.661351 12.413046 -14.960623 4.251975 -73.261917 -54.712086 60.882973 -92.590668 4.277959 34.618053 6.992188 16.005859 -34.001209 -6.427974 8.898234 2.089853 66.939247 41.421173 51.657845 95.754929 -6.458752 36.810123 -7.001954 -15.996095 69.941406 -1.444853 6.247306 2.083974 22.747799 -5.306331 -1.578908 -19.395372 -1.027474 -0.483951 0.224375 -8.343854 -0.770328 17.175810 5.272275 1.087859 -17.035652 -4.716663 -0.987003 
29.536728 51.232075 -45.410736 -1.402802 0.096834 -4.017238 5.276229 -1.494749 0.973750 -7.449830 6.989307 0.191782 -19.185682 -6.701814 0.381690 31.794945 8.379253 0.684336 12.413046 -14.960623 4.251975 -73.478371 -54.666050 61.087704 -92.514076 4.209961 34.564758 6.992188 16.005859 -33.805901 -6.427974 8.898234 2.089853 67.053284 41.206158 51.679768 95.809761 -6.488570 36.843361 -7.001954 -15.996095 70.087891 -1.308065 6.198193 2.041368 22.640572 -5.292588 -1.591464 -19.316980 -1.019062 -0.511369 0.214578 -8.421609 -0.936359 17.339796 5.271724 1.113927 -17.098768 -4.492050 -0.933318 
29.586462 51.248653 -45.382275 -1.510094 0.208256 -3.952153 5.293947 -1.474944 0.966074 -7.438238 6.627425 0.194043 -19.018934 -6.673439 0.319114 31.871681 8.579476 0.656632 12.413046 -14.960623 4.251975 -73.604836 -54.553604 61.502007 -92.469719 4.168115 34.522842 6.992188 16.005859 -33.698475 -6.427974 8.898234 2.089853 67.490578 40.956116 51.935562 95.855965 -6.512913 36.876835 -7.001954 -15.996095 70.224609 -1.151913 6.012813 1.736433 22.617313 -5.305496 -1.564063 -19.287231 -1.029769 -0.505907 0.361065 -8.649932 -1.338135 17.339821 5.271653 1.113916 -17.078886 -4.173272 -0.853258 
29.603037 51.252407 -45.348492 -1.714655 0.388469 -3.987983 5.423840 -1.727415 0.785518 -7.674754 6.733587 0.131197 -18.733662 -6.803384 0.410860 32.031143 8.752372 0.925098 12.413046 -14.960623 4.251975 -73.815842 -54.173141 61.946579 -92.416489 4.120072 34.481152 6.992188 16.005859 -33.718006 -6.427974 8.898234 2.089853 67.648750 40.462688 52.550449 95.853752 -6.514905 36.867294 -7.001954 -15.996095 69.960938 -0.995138 5.754930 1.558304 22.868156 -5.306950 -1.583590 -19.444958 -1.011687 -0.486846 0.731838 -8.871850 -1.491436 16.984707 5.260756 1.069491 -16.920973 -4.170670 -0.822487 
29.568945 51.234890 -45.313148 -1.869979 0.223864 -4.208751 5.529681 -1.636665 0.885253 -7.763197 6.725869 0.150741 -18.616993 -6.613718 0.345715 32.039101 8.280932 0.734554 12.413046 -14.960623 4.251975 -74.025055 -54.067112 62.751606 -92.317055 4.030891 34.388008 6.992188 16.005859 -33.718006 -6.427974 8.898234 2.089853 67.902481 39.991207 53.156025 95.827347 -6.499121 36.854885 -7.001954 -15.996095 69.746094 -0.946355 5.959414 1.852538 23.259584 -5.307180 -1.609095 -19.780565 -1.141317 -0.517948 1.161779 -8.621496 -1.027536 16.584913 5.261004 1.053791 -16.884321 -4.556459 -0.916921 
29.535480 51.231453 -45.335670 -1.645075 -0.906020 -4.663487 5.384818 -0.234486 1.460003 -7.573642 6.166337 0.313310 -18.766127 -6.269544 0.166024 31.974731 7.734706 0.282117 12.413046 -14.960623 4.251975 -74.169098 -54.246143 63.870384 -92.176582 3.897074 34.262924 6.992188 16.005859 -33.620354 -6.427974 8.898234 2.089853 68.416794 39.862316 53.850109 95.753830 -6.459732 36.810234 -7.001954 -15.996095 69.580078 -1.396401 7.284420 2.371126 23.430565 -5.306340 -1.645505 -19.948805 -1.116448 -0.484326 1.083821 -7.254180 0.051649 16.664700 5.268407 1.057773 -16.992874 -5.046621 -1.070922 
